<?xml version="1.0" encoding="UTF-8" standalone="no"?>
<!-- Created with Inkscape (http://www.inkscape.org/) -->

<svg
   width="210mm"
   height="297mm"
   viewBox="0 0 210 297"
   version="1.1"
   id="svg12148"
   xml:space="preserve"
   xmlns="http://www.w3.org/2000/svg"
   xmlns:svg="http://www.w3.org/2000/svg"><defs
     id="defs12145" /><g
     id="layer1"><path
       id="path12227"
       style="fill:#d03f3f;fill-opacity:1;stroke:#d03f3f;stroke-width:0.264583px;stroke-linecap:butt;stroke-linejoin:miter;stroke-opacity:1"
       d="m 87.512617,52.067904 c -1.51297,1.561238 -2.49589,0.946129 -3.66024,1.075386 3.78419,11.165502 5.02567,23.815607 12.3269,32.927705 5.070413,11.375468 2.30795,16.154445 3.31762,24.110155 -7.219,-24.035832 -15.45518,-37.096047 -21.75371,-44.045888 -1.43923,1.576305 -2.25208,2.042428 -3.18533,2.721797 4.36318,8.779317 2.3709,9.179081 3.49849,13.692187 -1.49101,-0.04519 -2.14365,0.926716 -2.91041,1.7601 1.17174,2.299436 1.38054,4.240039 1.92029,6.304008 -9.3491,-10.204161 -15.33415,-18.08367 -21.44107,-18.963701 -0.0124,2.483196 -1.24413,3.39039 -3.24786,3.299541 5.22118,8.407442 5.40428,15.614041 24.32823,27.287226 10.04993,7.58154 7.286,7.80082 7.3241,8.71161 -6.49297,-5.79389 -14.97761,-10.7616 -23.8094,-15.585612 -8.57287,-6.892505 -12.1255,-10.20174 -16.7473,-9.826791 -0.8551,0.781492 -1.30618,1.748559 -0.95756,3.083533 2.21567,0.579921 3.06151,2.088707 4.4266,3.24528 -2.78883,-0.96758 -5.70674,-2.367498 -8.09769,-2.002978 0.15326,4.267259 -1.57143,3.640997 -2.89957,4.047298 2.9377,4.098768 5.56908,8.09847 17.1943,15.00736 -1.13747,0.56835 -2.0804,0.79851 -2.02778,3.01428 0.41231,-0.0642 9.02166,6.47068 11.15074,9.22735 -12.87408,-3.30784 -25.33054,-6.09813 -33.43414,-3.49488 1.37368,4.55846 -0.21014,5.04143 -0.85421,6.81922 14.1893,4.91963 23.26336,5.45466 32.1753,5.85081 4.79066,0.21295 9.53457,0.3859 15.00115,1.17822 -1.52399,0.53268 -2.73633,1.67066 -4.17546,2.87062 -1.81349,1.51211 -3.98733,3.12207 -7.60108,3.74086 -0.0717,1.07013 0.23538,2.08256 0.80925,3.05408 2.09417,-0.39042 4.01817,-0.8531 6.57479,-1.04697 5.16739,1.88071 10.23481,-1.14827 15.33757,-2.44274 -5.12482,3.4854 -10.50803,5.59061 -14.6079,8.21552 -13.8516,8.8684 -24.19361,10.90659 -25.5819,14.09526 1.81497,1.46613 1.96086,2.38296 2.728,3.50418 3.27131,-3.66272 5.76704,-1.25791 18.21698,-6.02134 -12.73458,8.34961 -13.21903,12.50714 -15.87449,17.40773 2.42102,1.11705 3.60381,2.38411 3.53881,3.80235 9.23355,-2.64301 15.82236,-8.87339 22.75313,-17.49092 0.14062,-0.0191 0.2735,-0.0455 0.41134,-0.0672 -11.6002,21.02299 -22.31623,44.51657 -31.74018,71.61733 4.97059,-3.95874 10.18516,-4.05544 14.8792,-12.39873 8.20763,-29.97926 18.19181,-50.58887 28.89953,-67.22535 0.53678,-0.76669 1.03522,-1.54622 1.5229,-2.33112 1.49233,-2.25395 2.99591,-4.4449 4.51135,-6.57015 1.45031,22.8171 -13.01426,25.23779 -14.29008,50.82429 5.38123,-2.40953 1.68983,3.46871 5.6379,1.62161 6.15986,-6.04516 6.65034,-20.02125 12.84159,-37.87676 0.674813,3.77567 -2.28747,9.08972 -3.02669,14.15211 -0.60599,4.87246 0.40831,12.65994 -0.55087,14.9779 1.7785,1.02929 3.12372,1.29146 4.260213,1.1839 2.87985,-2.69104 5.21469,-9.36804 4.91701,-35.30689 5.48861,10.79152 -1.4466,30.98007 8.73384,43.73945 1.40976,-0.74853 2.94284,-1.25876 4.92218,-0.90847 2.84127,-7.99377 -1.70617,-18.84911 -3.18637,-28.5166 4.00139,9.33199 2.48461,12.85781 13.12943,29.17961 1.07118,-0.86581 2.20062,-1.22713 3.36103,-1.32033 -0.33319,-2.23086 -0.91983,-4.46176 -1.76371,-6.69262 2.92409,2.85298 5.08802,4.74892 6.08696,5.68441 0.62845,-0.54579 1.19373,-2.66409 2.62879,-2.07274 -0.27991,-3.12304 -1.09837,-6.82282 -7.19285,-16.17472 -4.38177,-7.54155 -6.64322,-13.80758 -8.93382,-20.09077 3.58965,3.58916 5.49574,8.61676 11.52229,10.12393 4.8801,4.18246 5.91655,5.19869 8.87492,7.79798 2.2032,-0.95803 2.06721,-1.90436 2.91041,-2.85564 -0.70344,-0.81948 -1.76588,-0.83639 -2.43602,-1.7229 -5.24111,-6.93319 -15.78688,-17.43582 -25.27133,-26.27229 4.53746,2.50142 8.77027,4.65853 14.67766,8.70747 22.70889,21.41536 19.91804,12.02999 29.35686,17.41651 -1.12489,-4.39559 1.06905,-3.00973 1.6862,-4.37079 -2.21092,-3.65728 -8.49914,-6.09491 -13.80691,-8.82582 -4.21632,-1.85028 -7.49157,-4.68785 -11.14764,-7.12566 6.96158,2.11905 9.96854,2.25822 9.74825,0.78083 6.9878,0.44823 9.25634,1.1585 11.89178,1.84847 0.18735,-1.79243 0.7504,-2.05513 1.35754,-2.728 -1.74037,-1.10063 -4.17087,-2.48931 -7.3794,-4.71599 -5.1719,-3.58925 -13.55776,-5.36207 -23.87451,-7.80625 4.98064,0.22523 9.74787,0.14821 15.34118,1.24282 11.99771,3.25598 17.31519,2.49545 25.24136,-0.27853 -3.76124,-1.08836 -1.54135,-2.16337 -1.88413,-3.24425 -1.88375,-1.24431 -11.73267,-1.17802 -17.86506,-0.84129 -3.9065,0.21451 -3.54358,-1.02733 -7.44605,-1.22008 7.41956,-0.80348 15.41375,-1.58424 17.56068,-2.59468 0.63914,-0.88928 -0.0733,-1.67577 -0.61598,-2.4753 -4.01108,0.66803 -4.39169,-6.5e-4 -6.39393,-0.0724 7.58273,-1.42681 10.75809,-4.06932 14.4663,-6.56445 -2.30917,-1.2249 -1.75908,-2.66322 -1.4304,-4.08502 -6.35314,-2.24175 -26.65695,4.78633 -41.11842,7.93233 5.24579,-3.11794 10.68777,-4.38631 15.68276,-9.86968 5.37872,-2.6968 11.21277,-4.76012 13.09016,-12.33104 -3.26598,0.009 -4.2372,-1.15927 -1.80661,-4.073134 -0.9369,-0.828994 -1.373,-1.865619 -1.47381,-3.041158 -2.87506,1.498263 -4.10929,3.701727 -9.59528,4.077271 -2.66583,0.421477 -4.91494,1.637451 -7.08174,3.009631 1.9296,-3.107711 4.15315,-6.785812 6.72724,-10.046411 4.09613,-5.188566 8.358,-9.916018 8.2734,-14.112834 -2.642,0.16868 -2.02047,-2.095755 -2.69958,-3.390491 -6.88227,4.386123 -11.36454,11.44953 -15.49466,18.313611 -3.20261,5.322612 -8.26468,8.946115 -12.53515,12.309325 3.96959,-7.26701 8.30034,-13.589214 11.57759,-22.667349 2.59486,-6.15839 5.41281,-12.429513 5.06429,-17.101797 -2.78191,0.911179 -1.97289,-1.005701 -2.18954,-2.115117 -3.82547,6.618753 -9.30346,13.095253 -11.93622,21.800736 -2.62962,8.695155 -5.66053,16.386097 -10.93628,19.945557 6.04665,-49.128391 3.11722,-41.290208 1.10639,-49.562353 -3.64818,2.992785 -3.60113,0.707375 -5.18418,0.749825 -3.42309,7.302145 -2.17899,21.234397 -5.15679,26.541015 -5.063923,-10.499293 -9.712133,-30.4488 -15.211483,-31.046683 z" /></g></svg>
